<svg width="199" height="48" viewBox="0 0 199 48" fill="none" xmlns="http://www.w3.org/2000/svg">
    <g clip-path="url(#clip0_115_1502)">
        <mask id="mask0_115_1502" style="mask-type:luminance" maskUnits="userSpaceOnUse" x="0" y="0" width="199"
            height="48">
            <path d="M198.857 0H0V48H198.857V0Z" fill="white" />
        </mask>
        <g mask="url(#mask0_115_1502)">
            <path d="M0 6.85718H17.3715L21.9429 21.8572L26.7429 6.85718H43.8857V41.1429H0V6.85718Z" fill="white" />
            <path
                d="M57.4677 38.4V19.6451H59.4487C59.9177 19.6451 60.2078 19.8734 60.3188 20.3301L60.5595 22.2556C61.2507 21.4039 62.0283 20.7066 62.8923 20.1635C63.7563 19.6204 64.7561 19.3488 65.8917 19.3488C67.1506 19.3488 68.1689 19.7006 68.9465 20.4042C69.7364 21.1077 70.3042 22.0581 70.6498 23.2554C70.9214 22.5765 71.267 21.9902 71.6866 21.4965C72.1186 21.0028 72.6 20.5955 73.1307 20.2746C73.6615 19.9536 74.2231 19.7191 74.8155 19.571C75.4203 19.4229 76.0313 19.3488 76.6484 19.3488C77.6359 19.3488 78.5122 19.5093 79.2775 19.8302C80.0551 20.1388 80.7092 20.5955 81.24 21.2003C81.7831 21.8051 82.1966 22.5518 82.4804 23.4405C82.7643 24.3168 82.9063 25.3228 82.9063 26.4583V38.4H79.5922V26.4583C79.5922 24.9895 79.2713 23.8787 78.6295 23.1258C77.9876 22.3605 77.0619 21.9779 75.8523 21.9779C75.3092 21.9779 74.7908 22.0766 74.2971 22.2741C73.8158 22.4592 73.3899 22.737 73.0196 23.1072C72.6494 23.4775 72.3531 23.9466 72.131 24.5143C71.9211 25.0698 71.8162 25.7178 71.8162 26.4583V38.4H68.5022V26.4583C68.5022 24.9525 68.1998 23.8293 67.595 23.0887C66.9902 22.3482 66.1076 21.9779 64.9474 21.9779C64.1328 21.9779 63.3799 22.2 62.6887 22.6444C61.9975 23.0764 61.3618 23.6688 60.7817 24.4218V38.4H57.4677ZM95.8206 19.3488C97.1907 19.3488 98.4249 19.5772 99.5235 20.0339C100.622 20.4906 101.56 21.1386 102.338 21.9779C103.115 22.8172 103.708 23.8355 104.115 25.0327C104.535 26.2176 104.744 27.5445 104.744 29.0133C104.744 30.4944 104.535 31.8275 104.115 33.0124C103.708 34.1973 103.115 35.2094 102.338 36.0487C101.56 36.888 100.622 37.536 99.5235 37.9927C98.4249 38.4371 97.1907 38.6592 95.8206 38.6592C94.4382 38.6592 93.1916 38.4371 92.0807 37.9927C90.9822 37.536 90.0442 36.888 89.2666 36.0487C88.489 35.2094 87.8903 34.1973 87.4707 33.0124C87.0634 31.8275 86.8597 30.4944 86.8597 29.0133C86.8597 27.5445 87.0634 26.2176 87.4707 25.0327C87.8903 23.8355 88.489 22.8172 89.2666 21.9779C90.0442 21.1386 90.9822 20.4906 92.0807 20.0339C93.1916 19.5772 94.4382 19.3488 95.8206 19.3488ZM95.8206 36.0858C97.672 36.0858 99.0544 35.4686 99.9678 34.2343C100.881 32.9877 101.338 31.2535 101.338 29.0318C101.338 26.7978 100.881 25.0574 99.9678 23.8108C99.0544 22.5642 97.672 21.9408 95.8206 21.9408C94.8826 21.9408 94.0617 22.1013 93.3582 22.4222C92.667 22.7431 92.0869 23.206 91.6179 23.8108C91.1612 24.4156 90.8156 25.1623 90.5811 26.051C90.3589 26.9274 90.2478 27.921 90.2478 29.0318C90.2478 31.2535 90.7045 32.9877 91.6179 34.2343C92.5436 35.4686 93.9445 36.0858 95.8206 36.0858ZM114.357 38.6963C112.876 38.6963 111.734 38.2828 110.932 37.4558C110.142 36.6288 109.747 35.4378 109.747 33.8826V22.4037H107.488C107.291 22.4037 107.124 22.3482 106.988 22.2371C106.852 22.1136 106.784 21.9285 106.784 21.6816V20.3671L109.858 19.9783L110.617 14.1834C110.654 13.9982 110.734 13.8501 110.858 13.739C110.993 13.6156 111.166 13.5539 111.376 13.5539H113.042V20.0154H118.467V22.4037H113.042V33.6604C113.042 34.4503 113.234 35.0366 113.616 35.4192C113.999 35.8019 114.493 35.9932 115.097 35.9932C115.443 35.9932 115.739 35.95 115.986 35.8636C116.245 35.7648 116.467 35.6599 116.653 35.5488C116.838 35.4378 116.992 35.339 117.115 35.2526C117.251 35.1539 117.368 35.1045 117.467 35.1045C117.64 35.1045 117.794 35.2094 117.93 35.4192L118.893 36.993C118.325 37.5237 117.64 37.9434 116.838 38.2519C116.035 38.5482 115.208 38.6963 114.357 38.6963ZM129.667 19.3488C131.037 19.3488 132.271 19.5772 133.37 20.0339C134.468 20.4906 135.406 21.1386 136.184 21.9779C136.962 22.8172 137.554 23.8355 137.962 25.0327C138.381 26.2176 138.591 27.5445 138.591 29.0133C138.591 30.4944 138.381 31.8275 137.962 33.0124C137.554 34.1973 136.962 35.2094 136.184 36.0487C135.406 36.888 134.468 37.536 133.37 37.9927C132.271 38.4371 131.037 38.6592 129.667 38.6592C128.285 38.6592 127.038 38.4371 125.927 37.9927C124.829 37.536 123.891 36.888 123.113 36.0487C122.335 35.2094 121.737 34.1973 121.317 33.0124C120.91 31.8275 120.706 30.4944 120.706 29.0133C120.706 27.5445 120.91 26.2176 121.317 25.0327C121.737 23.8355 122.335 22.8172 123.113 21.9779C123.891 21.1386 124.829 20.4906 125.927 20.0339C127.038 19.5772 128.285 19.3488 129.667 19.3488ZM129.667 36.0858C131.518 36.0858 132.901 35.4686 133.814 34.2343C134.728 32.9877 135.184 31.2535 135.184 29.0318C135.184 26.7978 134.728 25.0574 133.814 23.8108C132.901 22.5642 131.518 21.9408 129.667 21.9408C128.729 21.9408 127.908 22.1013 127.205 22.4222C126.513 22.7431 125.933 23.206 125.464 23.8108C125.008 24.4156 124.662 25.1623 124.428 26.051C124.205 26.9274 124.094 27.921 124.094 29.0318C124.094 31.2535 124.551 32.9877 125.464 34.2343C126.39 35.4686 127.791 36.0858 129.667 36.0858ZM145.899 23.4035C146.492 22.1198 147.22 21.12 148.084 20.4042C148.948 19.6759 150.004 19.3118 151.251 19.3118C151.646 19.3118 152.021 19.355 152.379 19.4414C152.75 19.5278 153.077 19.6636 153.361 19.8487L153.12 22.3111C153.046 22.6197 152.861 22.774 152.565 22.774C152.392 22.774 152.139 22.737 151.806 22.6629C151.473 22.5888 151.096 22.5518 150.676 22.5518C150.084 22.5518 149.553 22.6382 149.084 22.811C148.627 22.9838 148.214 23.243 147.844 23.5886C147.486 23.9219 147.158 24.3415 146.862 24.8476C146.578 25.3413 146.319 25.9091 146.085 26.5509V38.4H142.771V19.6451H144.66C145.018 19.6451 145.264 19.713 145.4 19.8487C145.536 19.9845 145.628 20.219 145.677 20.5523L145.899 23.4035ZM159.74 19.6451V38.4H156.444V19.6451H159.74ZM160.443 13.7575C160.443 14.0784 160.375 14.3808 160.239 14.6647C160.116 14.9363 159.943 15.1831 159.721 15.4053C159.511 15.6151 159.258 15.7818 158.962 15.9052C158.678 16.0286 158.375 16.0903 158.054 16.0903C157.733 16.0903 157.432 16.0286 157.148 15.9052C156.876 15.7818 156.635 15.6151 156.425 15.4053C156.215 15.1831 156.049 14.9363 155.926 14.6647C155.802 14.3808 155.741 14.0784 155.741 13.7575C155.741 13.4366 155.802 13.1342 155.926 12.8503C156.049 12.5541 156.215 12.3011 156.425 12.0912C156.635 11.8691 156.876 11.6963 157.148 11.5728C157.432 11.4494 157.733 11.3877 158.054 11.3877C158.375 11.3877 158.678 11.4494 158.962 11.5728C159.258 11.6963 159.511 11.8691 159.721 12.0912C159.943 12.3011 160.116 12.5541 160.239 12.8503C160.375 13.1342 160.443 13.4366 160.443 13.7575ZM178.095 21.0522C178.095 21.2867 178.053 21.515 177.966 21.7372C177.892 21.9594 177.786 22.1507 177.651 22.3111L167.487 35.8266H177.744V38.4H163.617V37.03C163.617 36.8695 163.654 36.6844 163.728 36.4746C163.802 36.2524 163.913 36.0426 164.061 35.8451L174.281 22.2371H164.192V19.6451H178.095V21.0522ZM192.06 29.9575C190.542 30.0069 189.246 30.1303 188.172 30.3278C187.111 30.513 186.241 30.7598 185.562 31.0684C184.896 31.377 184.408 31.7411 184.099 32.1607C183.803 32.5804 183.655 33.0494 183.655 33.5678C183.655 34.0615 183.736 34.4874 183.896 34.8453C184.057 35.2032 184.272 35.4995 184.544 35.734C184.827 35.9562 185.155 36.1228 185.525 36.2339C185.908 36.3326 186.315 36.382 186.747 36.382C187.328 36.382 187.858 36.3264 188.34 36.2154C188.821 36.0919 189.271 35.9191 189.69 35.697C190.122 35.4748 190.53 35.2094 190.912 34.9008C191.307 34.5923 191.69 34.2405 192.06 33.8455V29.9575ZM181.415 22.2926C182.452 21.2928 183.568 20.5461 184.766 20.0524C185.963 19.5587 187.29 19.3118 188.747 19.3118C189.796 19.3118 190.727 19.4846 191.542 19.8302C192.357 20.1758 193.042 20.6572 193.598 21.2743C194.153 21.8915 194.573 22.6382 194.857 23.5146C195.141 24.3909 195.282 25.3536 195.282 26.4028V38.4H193.82C193.499 38.4 193.252 38.3507 193.079 38.2519C192.906 38.1408 192.771 37.931 192.672 37.6224L192.302 35.8451C191.808 36.3018 191.327 36.7091 190.858 37.067C190.389 37.4126 189.895 37.7088 189.376 37.9557C188.858 38.1902 188.303 38.3692 187.71 38.4926C187.13 38.6284 186.481 38.6963 185.765 38.6963C185.037 38.6963 184.353 38.5975 183.711 38.4C183.069 38.1902 182.507 37.8816 182.026 37.4743C181.557 37.067 181.181 36.5548 180.897 35.9376C180.625 35.3082 180.49 34.5676 180.49 33.7159C180.49 32.9754 180.693 32.2656 181.1 31.5868C181.507 30.8956 182.168 30.2846 183.082 29.7539C183.995 29.2231 185.185 28.7911 186.654 28.4579C188.123 28.1123 189.925 27.9148 192.06 27.8654V26.4028C192.06 24.9463 191.746 23.8478 191.117 23.1072C190.487 22.3543 189.567 21.9779 188.357 21.9779C187.543 21.9779 186.858 22.0828 186.303 22.2926C185.76 22.4901 185.284 22.7184 184.877 22.9776C184.482 23.2245 184.136 23.4528 183.84 23.6627C183.556 23.8602 183.272 23.9589 182.988 23.9589C182.766 23.9589 182.576 23.9034 182.415 23.7923C182.255 23.6688 182.119 23.5207 182.008 23.3479L181.415 22.2926Z"
                fill="white" />
        </g>
    </g>
    <defs>
        <clipPath id="clip0_115_1502">
            <rect width="198.857" height="48" fill="white" />
        </clipPath>
    </defs>
</svg>