<svg width="145" height="35" viewBox="0 0 145 35" fill="none" xmlns="http://www.w3.org/2000/svg">
    <g id="Clip path group">
        <mask id="mask0_150_306" style="mask-type:luminance" maskUnits="userSpaceOnUse" x="0" y="0" width="145"
            height="35">
            <g id="clip0_1_4338">
                <path id="Vector" d="M145 0H0V35H145V0Z" fill="white" />
            </g>
        </mask>
        <g mask="url(#mask0_150_306)">
            <g id="Group">
                <path id="Vector_2" d="M0 5H12.6667L16 15.9375L19.5 5H32V30H0V5Z" fill="#111111" />
                <path id="Vector_3"
                    d="M41.9035 28V14.3245H43.348C43.69 14.3245 43.9015 14.491 43.9825 14.824L44.158 16.228C44.662 15.607 45.229 15.0985 45.859 14.7025C46.489 14.3065 47.218 14.1085 48.046 14.1085C48.964 14.1085 49.7065 14.365 50.2735 14.878C50.8495 15.391 51.2635 16.084 51.5155 16.957C51.7135 16.462 51.9655 16.0345 52.2715 15.6745C52.5865 15.3145 52.9375 15.0175 53.3245 14.7835C53.7115 14.5495 54.121 14.3785 54.553 14.2705C54.994 14.1625 55.4395 14.1085 55.8895 14.1085C56.6095 14.1085 57.2485 14.2255 57.8065 14.4595C58.3735 14.6845 58.8505 15.0175 59.2375 15.4585C59.6335 15.8995 59.935 16.444 60.142 17.092C60.349 17.731 60.4525 18.4645 60.4525 19.2925V28H58.036V19.2925C58.036 18.2215 57.802 17.4115 57.334 16.8625C56.866 16.3045 56.191 16.0255 55.309 16.0255C54.913 16.0255 54.535 16.0975 54.175 16.2415C53.824 16.3765 53.5135 16.579 53.2435 16.849C52.9735 17.119 52.7575 17.461 52.5955 17.875C52.4425 18.28 52.366 18.7525 52.366 19.2925V28H49.9495V19.2925C49.9495 18.1945 49.729 17.3755 49.288 16.8355C48.847 16.2955 48.2035 16.0255 47.3575 16.0255C46.7635 16.0255 46.2145 16.1875 45.7105 16.5115C45.2065 16.8265 44.743 17.2585 44.32 17.8075V28H41.9035ZM69.8692 14.1085C70.8682 14.1085 71.7682 14.275 72.5692 14.608C73.3702 14.941 74.0542 15.4135 74.6212 16.0255C75.1882 16.6375 75.6202 17.38 75.9172 18.253C76.2232 19.117 76.3762 20.0845 76.3762 21.1555C76.3762 22.2355 76.2232 23.2075 75.9172 24.0715C75.6202 24.9355 75.1882 25.6735 74.6212 26.2855C74.0542 26.8975 73.3702 27.37 72.5692 27.703C71.7682 28.027 70.8682 28.189 69.8692 28.189C68.8612 28.189 67.9522 28.027 67.1422 27.703C66.3412 27.37 65.6572 26.8975 65.0902 26.2855C64.5232 25.6735 64.0867 24.9355 63.7807 24.0715C63.4837 23.2075 63.3352 22.2355 63.3352 21.1555C63.3352 20.0845 63.4837 19.117 63.7807 18.253C64.0867 17.38 64.5232 16.6375 65.0902 16.0255C65.6572 15.4135 66.3412 14.941 67.1422 14.608C67.9522 14.275 68.8612 14.1085 69.8692 14.1085ZM69.8692 26.3125C71.2192 26.3125 72.2272 25.8625 72.8932 24.9625C73.5592 24.0535 73.8922 22.789 73.8922 21.169C73.8922 19.54 73.5592 18.271 72.8932 17.362C72.2272 16.453 71.2192 15.9985 69.8692 15.9985C69.1852 15.9985 68.5867 16.1155 68.0737 16.3495C67.5697 16.5835 67.1467 16.921 66.8047 17.362C66.4717 17.803 66.2197 18.3475 66.0487 18.9955C65.8867 19.6345 65.8057 20.359 65.8057 21.169C65.8057 22.789 66.1387 24.0535 66.8047 24.9625C67.4797 25.8625 68.5012 26.3125 69.8692 26.3125ZM83.3852 28.216C82.3052 28.216 81.4727 27.9145 80.8877 27.3115C80.3117 26.7085 80.0237 25.84 80.0237 24.706V16.336H78.3767C78.2327 16.336 78.1112 16.2955 78.0122 16.2145C77.9132 16.1245 77.8637 15.9895 77.8637 15.8095V14.851L80.1047 14.5675L80.6582 10.342C80.6852 10.207 80.7437 10.099 80.8337 10.018C80.9327 9.928 81.0587 9.883 81.2117 9.883H82.4267V14.5945H86.3822V16.336H82.4267V24.544C82.4267 25.12 82.5662 25.5475 82.8452 25.8265C83.1242 26.1055 83.4842 26.245 83.9252 26.245C84.1772 26.245 84.3932 26.2135 84.5732 26.1505C84.7622 26.0785 84.9242 26.002 85.0592 25.921C85.1942 25.84 85.3067 25.768 85.3967 25.705C85.4957 25.633 85.5812 25.597 85.6532 25.597C85.7792 25.597 85.8917 25.6735 85.9907 25.8265L86.6927 26.974C86.2787 27.361 85.7792 27.667 85.1942 27.892C84.6092 28.108 84.0062 28.216 83.3852 28.216ZM94.5489 14.1085C95.5479 14.1085 96.4479 14.275 97.2489 14.608C98.0499 14.941 98.7339 15.4135 99.3009 16.0255C99.8679 16.6375 100.3 17.38 100.597 18.253C100.903 19.117 101.056 20.0845 101.056 21.1555C101.056 22.2355 100.903 23.2075 100.597 24.0715C100.3 24.9355 99.8679 25.6735 99.3009 26.2855C98.7339 26.8975 98.0499 27.37 97.2489 27.703C96.4479 28.027 95.5479 28.189 94.5489 28.189C93.5409 28.189 92.6319 28.027 91.8219 27.703C91.0209 27.37 90.3369 26.8975 89.7699 26.2855C89.2029 25.6735 88.7664 24.9355 88.4604 24.0715C88.1634 23.2075 88.0149 22.2355 88.0149 21.1555C88.0149 20.0845 88.1634 19.117 88.4604 18.253C88.7664 17.38 89.2029 16.6375 89.7699 16.0255C90.3369 15.4135 91.0209 14.941 91.8219 14.608C92.6319 14.275 93.5409 14.1085 94.5489 14.1085ZM94.5489 26.3125C95.8989 26.3125 96.9069 25.8625 97.5729 24.9625C98.2389 24.0535 98.5719 22.789 98.5719 21.169C98.5719 19.54 98.2389 18.271 97.5729 17.362C96.9069 16.453 95.8989 15.9985 94.5489 15.9985C93.8649 15.9985 93.2664 16.1155 92.7534 16.3495C92.2494 16.5835 91.8264 16.921 91.4844 17.362C91.1514 17.803 90.8994 18.3475 90.7284 18.9955C90.5664 19.6345 90.4854 20.359 90.4854 21.169C90.4854 22.789 90.8184 24.0535 91.4844 24.9625C92.1594 25.8625 93.1809 26.3125 94.5489 26.3125ZM106.385 17.065C106.817 16.129 107.348 15.4 107.978 14.878C108.608 14.347 109.378 14.0815 110.287 14.0815C110.575 14.0815 110.849 14.113 111.11 14.176C111.38 14.239 111.619 14.338 111.826 14.473L111.65 16.2685C111.596 16.4935 111.461 16.606 111.245 16.606C111.119 16.606 110.935 16.579 110.692 16.525C110.449 16.471 110.174 16.444 109.868 16.444C109.436 16.444 109.049 16.507 108.707 16.633C108.374 16.759 108.073 16.948 107.803 17.2C107.542 17.443 107.303 17.749 107.087 18.118C106.88 18.478 106.691 18.892 106.52 19.36V28H104.104V14.3245H105.481C105.742 14.3245 105.922 14.374 106.021 14.473C106.12 14.572 106.187 14.743 106.223 14.986L106.385 17.065ZM116.477 14.3245V28H114.074V14.3245H116.477ZM116.99 10.0315C116.99 10.2655 116.94 10.486 116.841 10.693C116.751 10.891 116.625 11.071 116.463 11.233C116.31 11.386 116.126 11.5075 115.91 11.5975C115.703 11.6875 115.482 11.7325 115.248 11.7325C115.014 11.7325 114.794 11.6875 114.587 11.5975C114.389 11.5075 114.213 11.386 114.06 11.233C113.907 11.071 113.786 10.891 113.696 10.693C113.606 10.486 113.561 10.2655 113.561 10.0315C113.561 9.7975 113.606 9.577 113.696 9.37C113.786 9.154 113.907 8.9695 114.06 8.8165C114.213 8.6545 114.389 8.5285 114.587 8.4385C114.794 8.3485 115.014 8.3035 115.248 8.3035C115.482 8.3035 115.703 8.3485 115.91 8.4385C116.126 8.5285 116.31 8.6545 116.463 8.8165C116.625 8.9695 116.751 9.154 116.841 9.37C116.94 9.577 116.99 9.7975 116.99 10.0315ZM129.861 15.3505C129.861 15.5215 129.83 15.688 129.767 15.85C129.713 16.012 129.636 16.1515 129.537 16.2685L122.126 26.1235H129.605V28H119.304V27.001C119.304 26.884 119.331 26.749 119.385 26.596C119.439 26.434 119.52 26.281 119.628 26.137L127.08 16.2145H119.723V14.3245H129.861V15.3505ZM140.044 21.844C138.937 21.88 137.992 21.97 137.209 22.114C136.435 22.249 135.801 22.429 135.306 22.654C134.82 22.879 134.464 23.1445 134.239 23.4505C134.023 23.7565 133.915 24.0985 133.915 24.4765C133.915 24.8365 133.974 25.147 134.091 25.408C134.208 25.669 134.365 25.885 134.563 26.056C134.77 26.218 135.009 26.3395 135.279 26.4205C135.558 26.4925 135.855 26.5285 136.17 26.5285C136.593 26.5285 136.98 26.488 137.331 26.407C137.682 26.317 138.01 26.191 138.316 26.029C138.631 25.867 138.928 25.6735 139.207 25.4485C139.495 25.2235 139.774 24.967 140.044 24.679V21.844ZM132.282 16.255C133.038 15.526 133.852 14.9815 134.725 14.6215C135.598 14.2615 136.566 14.0815 137.628 14.0815C138.393 14.0815 139.072 14.2075 139.666 14.4595C140.26 14.7115 140.76 15.0625 141.165 15.5125C141.57 15.9625 141.876 16.507 142.083 17.146C142.29 17.785 142.393 18.487 142.393 19.252V28H141.327C141.093 28 140.913 27.964 140.787 27.892C140.661 27.811 140.562 27.658 140.49 27.433L140.22 26.137C139.86 26.47 139.509 26.767 139.167 27.028C138.825 27.28 138.465 27.496 138.087 27.676C137.709 27.847 137.304 27.9775 136.872 28.0675C136.449 28.1665 135.976 28.216 135.454 28.216C134.923 28.216 134.424 28.144 133.956 28C133.488 27.847 133.078 27.622 132.727 27.325C132.385 27.028 132.111 26.6545 131.904 26.2045C131.706 25.7455 131.607 25.2055 131.607 24.5845C131.607 24.0445 131.755 23.527 132.052 23.032C132.349 22.528 132.831 22.0825 133.497 21.6955C134.163 21.3085 135.031 20.9935 136.102 20.7505C137.173 20.4985 138.487 20.3545 140.044 20.3185V19.252C140.044 18.19 139.815 17.389 139.356 16.849C138.897 16.3 138.226 16.0255 137.344 16.0255C136.75 16.0255 136.251 16.102 135.846 16.255C135.45 16.399 135.103 16.5655 134.806 16.7545C134.518 16.9345 134.266 17.101 134.05 17.254C133.843 17.398 133.636 17.47 133.429 17.47C133.267 17.47 133.128 17.4295 133.011 17.3485C132.894 17.2585 132.795 17.1505 132.714 17.0245L132.282 16.255Z"
                    fill="#111111" />
                <path id="Vector_4"
                    d="M107.616 7.636C107.675 7.636 107.727 7.65867 107.772 7.704L108.196 8.164C107.961 8.45467 107.672 8.67733 107.328 8.832C106.987 8.98667 106.576 9.064 106.096 9.064C105.667 9.064 105.28 8.99067 104.936 8.844C104.595 8.69733 104.303 8.49333 104.06 8.232C103.817 7.97067 103.631 7.65867 103.5 7.296C103.372 6.93333 103.308 6.53733 103.308 6.108C103.308 5.67333 103.377 5.276 103.516 4.916C103.655 4.55333 103.849 4.24133 104.1 3.98C104.353 3.71867 104.655 3.516 105.004 3.372C105.353 3.22533 105.74 3.152 106.164 3.152C106.585 3.152 106.959 3.22133 107.284 3.36C107.612 3.49867 107.891 3.68 108.12 3.904L107.76 4.404C107.739 4.436 107.711 4.464 107.676 4.488C107.644 4.512 107.599 4.524 107.54 4.524C107.5 4.524 107.459 4.51333 107.416 4.492C107.373 4.468 107.327 4.44 107.276 4.408C107.225 4.37333 107.167 4.336 107.1 4.296C107.033 4.256 106.956 4.22 106.868 4.188C106.78 4.15333 106.677 4.12533 106.56 4.104C106.445 4.08 106.312 4.068 106.16 4.068C105.901 4.068 105.664 4.11467 105.448 4.208C105.235 4.29867 105.051 4.432 104.896 4.608C104.741 4.78133 104.621 4.99467 104.536 5.248C104.451 5.49867 104.408 5.78533 104.408 6.108C104.408 6.43333 104.453 6.72267 104.544 6.976C104.637 7.22933 104.763 7.44267 104.92 7.616C105.077 7.78933 105.263 7.92267 105.476 8.016C105.689 8.10667 105.919 8.152 106.164 8.152C106.311 8.152 106.443 8.144 106.56 8.128C106.68 8.112 106.789 8.08667 106.888 8.052C106.989 8.01733 107.084 7.97333 107.172 7.92C107.263 7.864 107.352 7.796 107.44 7.716C107.467 7.692 107.495 7.67333 107.524 7.66C107.553 7.644 107.584 7.636 107.616 7.636ZM114.324 6.108C114.324 6.532 114.253 6.92533 114.112 7.288C113.973 7.648 113.776 7.96 113.52 8.224C113.264 8.488 112.956 8.69467 112.596 8.844C112.236 8.99067 111.836 9.064 111.396 9.064C110.959 9.064 110.56 8.99067 110.2 8.844C109.84 8.69467 109.531 8.488 109.272 8.224C109.016 7.96 108.817 7.648 108.676 7.288C108.535 6.92533 108.464 6.532 108.464 6.108C108.464 5.684 108.535 5.292 108.676 4.932C108.817 4.56933 109.016 4.256 109.272 3.992C109.531 3.728 109.84 3.52267 110.2 3.376C110.56 3.22667 110.959 3.152 111.396 3.152C111.689 3.152 111.965 3.18667 112.224 3.256C112.483 3.32267 112.72 3.41867 112.936 3.544C113.152 3.66667 113.345 3.81733 113.516 3.996C113.689 4.172 113.836 4.36933 113.956 4.588C114.076 4.80667 114.167 5.044 114.228 5.3C114.292 5.556 114.324 5.82533 114.324 6.108ZM113.224 6.108C113.224 5.79067 113.181 5.50667 113.096 5.256C113.011 5.00267 112.889 4.788 112.732 4.612C112.575 4.436 112.383 4.30133 112.156 4.208C111.932 4.11467 111.679 4.068 111.396 4.068C111.113 4.068 110.859 4.11467 110.632 4.208C110.408 4.30133 110.216 4.436 110.056 4.612C109.899 4.788 109.777 5.00267 109.692 5.256C109.607 5.50667 109.564 5.79067 109.564 6.108C109.564 6.42533 109.607 6.71067 109.692 6.964C109.777 7.21467 109.899 7.428 110.056 7.604C110.216 7.77733 110.408 7.91067 110.632 8.004C110.859 8.09733 111.113 8.144 111.396 8.144C111.679 8.144 111.932 8.09733 112.156 8.004C112.383 7.91067 112.575 7.77733 112.732 7.604C112.889 7.428 113.011 7.21467 113.096 6.964C113.181 6.71067 113.224 6.42533 113.224 6.108ZM121.541 3.216V9H120.593V5.264C120.593 5.11467 120.601 4.95333 120.617 4.78L118.869 8.064C118.786 8.22133 118.66 8.3 118.489 8.3H118.337C118.166 8.3 118.04 8.22133 117.957 8.064L116.189 4.768C116.197 4.856 116.204 4.94267 116.209 5.028C116.214 5.11333 116.217 5.192 116.217 5.264V9H115.269V3.216H116.081C116.129 3.216 116.17 3.21733 116.205 3.22C116.24 3.22267 116.27 3.22933 116.297 3.24C116.326 3.25067 116.352 3.268 116.373 3.292C116.397 3.316 116.42 3.348 116.441 3.388L118.173 6.6C118.218 6.68533 118.26 6.77333 118.297 6.864C118.337 6.95467 118.376 7.048 118.413 7.144C118.45 7.04533 118.489 6.95067 118.529 6.86C118.569 6.76667 118.612 6.67733 118.657 6.592L120.365 3.388C120.386 3.348 120.409 3.316 120.433 3.292C120.457 3.268 120.482 3.25067 120.509 3.24C120.538 3.22933 120.57 3.22267 120.605 3.22C120.64 3.21733 120.681 3.216 120.729 3.216H121.541ZM124.712 6.124C124.909 6.124 125.081 6.1 125.228 6.052C125.374 6.00133 125.496 5.93067 125.592 5.84C125.69 5.74667 125.764 5.63467 125.812 5.504C125.86 5.37067 125.884 5.22267 125.884 5.06C125.884 4.90533 125.86 4.76533 125.812 4.64C125.764 4.51467 125.692 4.408 125.596 4.32C125.5 4.232 125.378 4.16533 125.232 4.12C125.085 4.072 124.912 4.048 124.712 4.048H123.908V6.124H124.712ZM124.712 3.216C125.098 3.216 125.433 3.26133 125.716 3.352C125.998 3.44267 126.232 3.56933 126.416 3.732C126.6 3.89467 126.736 4.08933 126.824 4.316C126.914 4.54267 126.96 4.79067 126.96 5.06C126.96 5.34 126.913 5.59733 126.82 5.832C126.726 6.064 126.586 6.264 126.4 6.432C126.213 6.6 125.978 6.73067 125.696 6.824C125.416 6.91733 125.088 6.964 124.712 6.964H123.908V9H122.832V3.216H124.712ZM130.434 6.816L129.73 4.892C129.696 4.80667 129.66 4.70533 129.622 4.588C129.585 4.47067 129.548 4.344 129.51 4.208C129.476 4.344 129.44 4.472 129.402 4.592C129.365 4.70933 129.329 4.812 129.294 4.9L128.594 6.816H130.434ZM132.334 9H131.502C131.409 9 131.333 8.97733 131.274 8.932C131.216 8.884 131.172 8.82533 131.142 8.756L130.71 7.576H128.314L127.882 8.756C127.861 8.81733 127.82 8.87333 127.758 8.924C127.697 8.97467 127.621 9 127.53 9H126.69L128.966 3.216H130.062L132.334 9ZM134.681 5.968C134.884 5.968 135.06 5.94267 135.209 5.892C135.361 5.84133 135.485 5.772 135.581 5.684C135.68 5.59333 135.753 5.48667 135.801 5.364C135.849 5.24133 135.873 5.10667 135.873 4.96C135.873 4.66667 135.776 4.44133 135.581 4.284C135.389 4.12667 135.094 4.048 134.697 4.048H134.009V5.968H134.681ZM137.449 9H136.477C136.293 9 136.16 8.928 136.077 8.784L134.861 6.932C134.816 6.86267 134.765 6.81333 134.709 6.784C134.656 6.75467 134.576 6.74 134.469 6.74H134.009V9H132.933V3.216H134.697C135.089 3.216 135.425 3.25733 135.705 3.34C135.988 3.42 136.218 3.53333 136.397 3.68C136.578 3.82667 136.712 4.00267 136.797 4.208C136.882 4.41067 136.925 4.63467 136.925 4.88C136.925 5.07467 136.896 5.25867 136.837 5.432C136.781 5.60533 136.698 5.76267 136.589 5.904C136.482 6.04533 136.349 6.16933 136.189 6.276C136.032 6.38267 135.852 6.46667 135.649 6.528C135.718 6.568 135.782 6.616 135.841 6.672C135.9 6.72533 135.953 6.78933 136.001 6.864L137.449 9ZM141.13 6.816L140.426 4.892C140.391 4.80667 140.355 4.70533 140.318 4.588C140.28 4.47067 140.243 4.344 140.206 4.208C140.171 4.344 140.135 4.472 140.098 4.592C140.06 4.70933 140.024 4.812 139.99 4.9L139.29 6.816H141.13ZM143.03 9H142.198C142.104 9 142.028 8.97733 141.97 8.932C141.911 8.884 141.867 8.82533 141.838 8.756L141.406 7.576H139.01L138.578 8.756C138.556 8.81733 138.515 8.87333 138.454 8.924C138.392 8.97467 138.316 9 138.226 9H137.386L139.662 3.216H140.758L143.03 9Z"
                    fill="#111111" />
            </g>
        </g>
    </g>
</svg>