<svg width="16" height="17" viewBox="0 0 16 17" fill="none" xmlns="http://www.w3.org/2000/svg">
    <g id="Icons">
        <path id="Vector"
            d="M13.6399 6.92C13.5463 5.94594 13.2021 5.01272 12.6407 4.21121C12.0793 3.4097 11.32 2.76722 10.4366 2.34633C9.55318 1.92544 8.57584 1.74048 7.59973 1.80947C6.62362 1.87846 5.68201 2.19904 4.86659 2.74C4.16605 3.20843 3.57796 3.8262 3.14455 4.54893C2.71114 5.27166 2.44318 6.0814 2.35992 6.92C2.27824 7.75311 2.38304 8.59395 2.6667 9.38152C2.95037 10.1691 3.40579 10.8836 3.99992 11.4733L7.53325 15.0133C7.59523 15.0758 7.66896 15.1254 7.7502 15.1593C7.83144 15.1931 7.91858 15.2105 8.00659 15.2105C8.09459 15.2105 8.18173 15.1931 8.26297 15.1593C8.34421 15.1254 8.41794 15.0758 8.47992 15.0133L11.9999 11.4733C12.5941 10.8836 13.0495 10.1691 13.3331 9.38152C13.6168 8.59395 13.7216 7.75311 13.6399 6.92ZM11.0666 10.5333L7.99992 13.6L4.93325 10.5333C4.48131 10.0814 4.13512 9.53489 3.91957 8.93317C3.70401 8.33146 3.62444 7.68946 3.68659 7.05333C3.74913 6.4074 3.95443 5.78344 4.28763 5.22656C4.62084 4.66968 5.07362 4.1938 5.61325 3.83333C6.32055 3.36349 7.15079 3.11286 7.99992 3.11286C8.84905 3.11286 9.67929 3.36349 10.3866 3.83333C10.9246 4.19241 11.3764 4.66619 11.7095 5.22063C12.0426 5.77506 12.2488 6.3964 12.3133 7.04C12.3774 7.67828 12.2989 8.32285 12.0832 8.92703C11.8676 9.53121 11.5204 10.0799 11.0666 10.5333ZM7.99992 4.5C7.40658 4.5 6.82656 4.67595 6.33321 5.00559C5.83986 5.33524 5.45534 5.80377 5.22828 6.35195C5.00122 6.90013 4.94181 7.50333 5.05756 8.08527C5.17332 8.66721 5.45904 9.20176 5.8786 9.62132C6.29816 10.0409 6.83271 10.3266 7.41465 10.4424C7.99659 10.5581 8.59979 10.4987 9.14797 10.2716C9.69615 10.0446 10.1647 9.66006 10.4943 9.16671C10.824 8.67336 10.9999 8.09334 10.9999 7.5C10.9982 6.70489 10.6815 5.94285 10.1193 5.38063C9.55707 4.8184 8.79503 4.50176 7.99992 4.5ZM7.99992 9.16667C7.67028 9.16667 7.34805 9.06892 7.07397 8.88578C6.79989 8.70265 6.58627 8.44235 6.46012 8.13781C6.33398 7.83326 6.30097 7.49815 6.36528 7.17485C6.42959 6.85155 6.58832 6.55458 6.82141 6.32149C7.0545 6.0884 7.35147 5.92967 7.67477 5.86536C7.99807 5.80105 8.33318 5.83405 8.63773 5.9602C8.94227 6.08635 9.20257 6.29997 9.3857 6.57405C9.56884 6.84813 9.66659 7.17036 9.66659 7.5C9.66659 7.94203 9.49099 8.36595 9.17843 8.67851C8.86587 8.99107 8.44195 9.16667 7.99992 9.16667Z"
            fill="#0C0E07" />
    </g>
</svg>